<?xml version="1.0" encoding="iso-8859-1"?>
<!-- Generator: Adobe Illustrator 19.0.0, SVG Export Plug-In . SVG Version: 6.00 Build 0)  -->
<svg version="1.1" id="Capa_1" xmlns="http://www.w3.org/2000/svg" xmlns:xlink="http://www.w3.org/1999/xlink" x="0px" y="0px"
	 viewBox="0 0 512 512" style="enable-background:new 0 0 512 512;" xml:space="preserve">
<path style="fill:#CFD8DC;" d="M128,0h256c29.455,0,53.333,23.878,53.333,53.333v405.333C437.333,488.122,413.455,512,384,512H128
	c-29.455,0-53.333-23.878-53.333-53.333V53.333C74.667,23.878,98.545,0,128,0z"/>
<path style="fill:#F44336;" d="M298.667,170.667c-16.787,0-32.594,7.904-42.667,21.333c-10.072-13.43-25.88-21.333-42.667-21.333
	c-25.771,0-53.333,16.811-53.333,64c0,55.915,85.824,122.944,89.472,125.867c3.84,2.963,9.195,2.963,13.035,0
	c3.648-2.837,89.472-69.845,89.472-125.867C352,187.477,324.437,170.667,298.667,170.667z"/>
<g>
	<path style="fill:#455A64;" d="M192,149.333c-4.443,0-8.42-2.754-9.984-6.912L160,83.712l-22.016,58.709
		c-2.074,5.52-8.229,8.314-13.749,6.24c-5.52-2.074-8.314-8.229-6.24-13.749l32-85.333c2.685-5.52,9.337-7.818,14.857-5.132
		c2.237,1.088,4.044,2.895,5.132,5.132l32,85.333c2.074,5.514-0.715,11.665-6.229,13.739
		C194.554,149.102,193.282,149.333,192,149.333z"/>
	<path style="fill:#455A64;" d="M181.333,128h-42.667c-5.891,0-10.667-4.776-10.667-10.667s4.776-10.667,10.667-10.667h42.667
		c5.891,0,10.667,4.776,10.667,10.667S187.224,128,181.333,128z"/>
	<path style="fill:#455A64;" d="M352,469.333c-4.443,0-8.42-2.754-9.984-6.912l-32-85.333c-2.074-5.52,0.72-11.676,6.24-13.749
		c5.52-2.074,11.676,0.72,13.749,6.24L352,428.288l22.016-58.709c2.074-5.52,8.229-8.314,13.749-6.24
		c5.52,2.074,8.314,8.229,6.24,13.749l-32,85.333C360.439,466.587,356.451,469.342,352,469.333z"/>
	<path style="fill:#455A64;" d="M373.333,405.333h-42.667c-5.891,0-10.667-4.776-10.667-10.667c0-5.891,4.776-10.667,10.667-10.667
		h42.667c5.891,0,10.667,4.776,10.667,10.667C384,400.558,379.224,405.333,373.333,405.333z"/>
</g>
<path d="M256,362.667c-2.352,0.028-4.647-0.722-6.528-2.133C245.824,357.611,160,290.581,160,234.667c0-47.189,27.563-64,53.333-64
	c16.787,0,32.594,7.904,42.667,21.333c10.072-13.43,25.88-21.333,42.667-21.333c25.771,0,53.333,16.811,53.333,64
	c0,55.915-85.824,122.944-89.472,125.867C260.647,361.945,258.352,362.695,256,362.667z M213.333,192c-20.629,0-32,15.147-32,42.667
	c0,34.581,49.067,82.368,74.667,103.637c25.6-21.333,74.667-69.12,74.667-103.637c0-27.52-11.371-42.667-32-42.667
	c-17.673,0-32,14.327-32,32c0,5.891-4.776,10.667-10.667,10.667c-5.891,0-10.667-4.776-10.667-10.667
	C245.333,206.327,231.006,192,213.333,192z"/>
<path d="M384,512H128c-29.455,0-53.333-23.878-53.333-53.333V53.333C74.667,23.878,98.545,0,128,0h256
	c29.455,0,53.333,23.878,53.333,53.333v405.333C437.333,488.122,413.455,512,384,512z M128,21.333c-17.673,0-32,14.327-32,32
	v405.333c0,17.673,14.327,32,32,32h256c17.673,0,32-14.327,32-32V53.333c0-17.673-14.327-32-32-32H128z"/>
<path d="M192,149.333c-4.443,0-8.42-2.754-9.984-6.912L160,83.712l-22.016,58.709c-2.074,5.52-8.229,8.314-13.749,6.24
	c-5.52-2.074-8.314-8.229-6.24-13.749l32-85.333c2.685-5.52,9.337-7.818,14.857-5.132c2.237,1.088,4.044,2.895,5.132,5.132
	l32,85.333c2.074,5.514-0.715,11.665-6.229,13.739C194.554,149.102,193.282,149.333,192,149.333z"/>
<path d="M181.333,128h-42.667c-5.891,0-10.667-4.776-10.667-10.667s4.776-10.667,10.667-10.667h42.667
	c5.891,0,10.667,4.776,10.667,10.667S187.224,128,181.333,128z"/>
<path d="M352,469.333c-4.443,0-8.42-2.754-9.984-6.912l-32-85.333c-2.074-5.52,0.72-11.676,6.24-13.749
	c5.52-2.074,11.676,0.72,13.749,6.24L352,428.288l22.016-58.709c2.074-5.52,8.229-8.314,13.749-6.24
	c5.52,2.074,8.314,8.229,6.24,13.749l-32,85.333C360.439,466.587,356.451,469.342,352,469.333z"/>
<path d="M373.333,405.333h-42.667c-5.891,0-10.667-4.776-10.667-10.667c0-5.891,4.776-10.667,10.667-10.667h42.667
	c5.891,0,10.667,4.776,10.667,10.667C384,400.558,379.224,405.333,373.333,405.333z"/>
<g>
</g>
<g>
</g>
<g>
</g>
<g>
</g>
<g>
</g>
<g>
</g>
<g>
</g>
<g>
</g>
<g>
</g>
<g>
</g>
<g>
</g>
<g>
</g>
<g>
</g>
<g>
</g>
<g>
</g>
</svg>
